<?xml version="1.0" encoding="utf-8"?>
<!-- Generator: Adobe Illustrator 26.0.3, SVG Export Plug-In . SVG Version: 6.00 Build 0)  -->
<svg version="1.1" id="Layer_1" xmlns="http://www.w3.org/2000/svg" xmlns:xlink="http://www.w3.org/1999/xlink" x="0px" y="0px"
	 viewBox="0 0 700 700" style="enable-background:new 0 0 700 700;" xml:space="preserve">
<style type="text/css">
	.st0{fill:#185A4A;}
	.st1{fill:#FFFFFF;}
</style>
<g>
	<polygon class="st0" points="350,54.8 690.9,645.2 9.1,645.2 	"/>
	<path class="st1" d="M367.7,318.2c-0.5,0.3-0.9,0.6-1.3,1c-2,1.6-4,3.3-5.7,5.1l-0.4,0.4c-1.5,1.8-3,3.7-4.3,5.6l-0.2,0.4
		c-0.6,1.1-1.2,2.2-1.8,3.4l-0.3,0.7v0c-0.5,1-1,2-1.3,3c-0.4,1.2-0.7,2.4-1,3.6l-0.4,1.8c-0.1,0.6-0.2,1.2-0.2,1.7v0.4
		c-0.3,2.5-0.3,5,0,7.4v0.7c0.1,0.9,0.3,1.9,0.5,2.8v0.5c0.2,0.8,0.5,1.7,0.7,2.2l0,0c0.5,1.6,1.2,3.2,2.1,4.7l0.4,0.8
		c0.8,1.4,1.8,2.7,2.8,3.9l0.3,0.4l0.4,0.4c0.8,0.9,1.7,1.7,2.6,2.5l0.4,0.3l0,0c0.7,0.6,1.5,1.2,2.3,1.7c1.2,0.9,2.6,1.6,3.9,2.2
		l0.5,0.2v0c0.7,0.3,1.5,0.6,2.3,0.8h0.2c1.6,0.3,3.3-0.1,4.6-1.1c1.2-1,2-2.4,2.1-4v-1.6v-1.9l0.3-3.2l0.4-2.4
		c0.3-1.3,0.7-2.5,1.2-3.6c0.2-0.4,0.4-0.7,0.6-1l0.3-0.4l0.4-0.6l0.7-0.7l1-0.7h0.2l1.3-0.9l0,0c0.6-0.3,1.3-0.7,1.9-1.1
		c0.9-0.3,1.7-0.8,2.4-1.3l1.4-0.7l2.3-1.2l4.6-2.5c4.2-2.6,8-5.9,11.3-9.7c3.4-4,6-8.6,7.7-13.6c1.5-4.6,2.2-9.4,1.9-14.3
		c-0.2-4.1-1.1-8.1-2.7-11.8c-2.1-5.2-5.4-9.8-9.6-13.5c-1.1-1-2.2-1.8-3.5-2.6l-0.5-0.3h0c-0.6-0.4-1.3-0.8-2-1.1
		c-1.5-0.6-3.3-0.5-4.7,0.3c-1.5,0.8-2.5,2.3-2.8,4l-0.3,1.6c0,0.4,0,0.9-0.3,1.5l-0.4,1.8h0c-0.7,3.5-1.6,6.9-2.8,10.2
		c-0.6,1.6-1.3,3.1-2.1,4.5c-0.7,1.2-1.6,2.3-2.5,3.2c-1,1-2.1,1.9-3.2,2.8c-1.3,0.9-2.7,1.9-4.3,2.9l-2.4,1.2l-0.6,0.4l-1,0.6
		l-2.1,1.4L367.7,318.2z M370.5,248.6c1.4,6.5,1.5,13.2,0.3,19.7c-1.3,7.1-4,14-7.9,20.1c-3.7,5.9-8.2,11.1-13.5,15.6l-5.8,4.5
		l-2.9,2.1l-1.9,1.4h0c-0.9,0.9-2,1.6-3.1,2.3c-0.8,0.7-1.6,1.4-2.5,2c-0.5,0.5-1.1,1-1.7,1.5l-0.4,0.4c-0.4,0.4-0.8,0.9-1.2,1.3
		c0,0-0.2,0.2-0.4,0.4l-1,1.3c-0.2,0.3-0.3,0.6-0.5,0.9l-0.3,0.6v0.4c0,0.5-0.3,1-0.6,1.5h0c-0.6,1.9-1,3.9-1.1,6v3.6l-0.2,4.8
		c0,1.1,0,2.1,0.2,2.8l0.3,2.2c0.2,1.7-0.3,3.3-1.4,4.6s-2.7,2-4.4,2h-0.4h0c-1-0.1-2-0.3-3-0.6h-0.6c-2-0.5-4-1.3-5.9-2.2
		c-1.2-0.6-2.3-1.2-3.5-1.9l-0.6-0.3c-1.4-0.9-2.7-1.8-4-2.8l-0.7-0.6l-0.4-0.3c-1.6-1.5-3.1-3.1-4.5-4.7l-0.7-0.9
		c-1.4-1.8-2.7-3.8-3.7-5.9c-0.4-0.7-0.9-1.8-1.3-2.9l-0.3-0.7v0c-0.5-1.2-0.9-2.3-1.2-3.6l-0.3-1h0c-0.9-3.3-1.4-6.6-1.5-10v-0.8
		c0-0.8,0-1.5,0-2.3l0.2-2.5c0-1.7,0.4-3.4,0.7-5.1v0c0.3-1.5,0.6-2.9,1.1-4.3l0.3-1c0.6-1.7,1.1-3.4,1.8-5.1l0.2-0.4
		c1.5-3,3.1-5.9,4.9-8.8l0.3-0.5c2.1-2.8,4.5-5.6,6.9-8.3c0.5-0.5,1-1.1,1.5-1.5l1.5-1.4c0.8-0.8,1.7-1.6,2.6-2.4l1.6-1.4l0.4-0.3
		l3.4-2.7c2.1-1.8,4-3.5,5.6-5.2c1.5-1.5,2.9-3.1,4.1-4.9c1.2-1.7,2.3-3.6,3.1-5.5c1-2.3,1.7-4.7,2.2-7.1c1-5.1,1.7-10.2,1.9-15.3
		v-2.6v-2.3V218c0-1.8,0.9-3.5,2.4-4.6c1.5-1.1,3.3-1.4,5.1-0.9c1,0.3,1.9,0.6,2.8,1l0.7,0.3c1.8,0.8,3.5,1.7,5.2,2.8
		c6.5,4.2,11.9,9.8,15.8,16.4C367.2,237.8,369.3,243.1,370.5,248.6L370.5,248.6z M541.6,472.8c4.9-19.5,0.5-40.2-11.9-56.1
		c-12.4-15.9-31.4-25.1-51.6-25.1H214.8c-4.7,0-9.2,1.9-12.5,5.4c-3.3,3.4-4.9,8-4.7,12.8c2.1,31.4,7.4,62.4,16,92.7
		c6.5,22.7,19.2,43.1,36.7,58.9h-22.7c-6.8,0-13.1,3.6-16.5,9.5c-3.4,5.9-3.4,13.2,0,19.1c3.4,5.9,9.7,9.5,16.5,9.5h214.8
		c6.8,0,13.1-3.6,16.5-9.5c3.4-5.9,3.4-13.2,0-19.1c-3.4-5.9-9.7-9.5-16.5-9.5h-22.7c12.1-10.9,22-24.1,29.1-38.9h29.3
		c14.6,0,28.8-4.9,40.3-13.9C529.9,499.6,538.1,487,541.6,472.8L541.6,472.8z M503.1,463.3c-1.3,5.6-4.6,10.6-9.1,14.2
		c-4.5,3.6-10.2,5.5-15.9,5.5h-16.7c4-17,7.1-34.2,9.1-51.6h7.6c7.9,0,15.4,3.6,20.3,9.9c4.9,6.3,6.6,14.4,4.7,22.1L503.1,463.3z"/>
</g>
</svg>
